<svg width="641" height="436" viewBox="0 0 641 436" fill="none" xmlns="http://www.w3.org/2000/svg">
<path d="M581.146 423.676C581.146 423.676 551.825 361.842 577.606 348.328C603.387 334.814 595.558 380.162 595.558 380.162C595.558 380.162 586.153 414.072 585.884 423.676C585.614 433.28 581.146 423.676 581.146 423.676Z" fill="#ADEAC9"/>
<path d="M584.148 428.044C576.249 382.536 584.078 352.816 584.148 352.526L585.146 352.806C585.066 353.095 577.307 382.606 585.146 427.865L584.148 428.044Z" fill="#50D171"/>
<path d="M580.538 423.197C580.538 423.197 575.461 407.908 562.925 403.161C550.389 398.414 535.997 387.094 543.467 378.018C550.937 368.943 571.472 380.402 578.005 405.654C582.443 422.868 580.538 423.197 580.538 423.197Z" fill="#ADEAC9"/>
<path d="M580.029 423.367C574.285 405.834 566.436 395.581 560.871 390.066C554.887 384.082 550.099 382.247 550.049 382.237L550.428 381.24C550.628 381.309 555.415 383.164 561.569 389.218C567.243 394.813 575.222 405.176 581.046 422.998L580.029 423.367Z" fill="#50D171"/>
<path d="M584.158 425.072C584.158 425.072 589.235 409.793 601.761 405.046C614.288 400.299 628.689 388.979 621.229 379.903C613.769 370.827 593.214 382.277 586.691 407.529C582.253 424.693 584.158 425.072 584.158 425.072Z" fill="#ADEAC9"/>
<path d="M584.667 425.242L583.669 424.913C589.494 407.13 597.483 396.728 603.157 391.123C609.341 385.029 614.128 383.145 614.288 383.145L614.667 384.142C614.447 384.182 595.647 391.702 584.667 425.242Z" fill="#50D171"/>
<path d="M584.617 428.044C584.617 428.044 590.661 419.278 599.487 418.58C608.314 417.882 619.573 413.354 616.442 406.203C613.31 399.052 598.221 402.553 589.424 417.373C583.44 427.456 584.617 428.044 584.617 428.044Z" fill="#ADEAC9"/>
<path d="M584.906 428.244L584.328 427.845C597.682 408.277 611.325 406.971 611.465 406.961L611.525 407.669C608.589 408.134 605.767 409.149 603.207 410.661C598.659 413.114 591.788 418.171 584.906 428.244Z" fill="#50D171"/>
<path d="M584.906 428.244C584.906 428.244 578.862 419.477 570.036 418.779C561.21 418.081 549.95 413.553 553.081 406.402C556.213 399.251 571.293 402.752 580.099 417.572C586.043 427.655 584.906 428.244 584.906 428.244Z" fill="#ADEAC9"/>
<path d="M584.617 428.443C571.472 409.155 558.138 407.908 558.008 407.908V407.2C558.148 407.2 571.791 408.517 585.155 428.084L584.617 428.443Z" fill="#50D171"/>
<path d="M557.639 428.752C557.639 428.752 576.588 410.94 589.464 418.37C589.464 418.37 601.821 409.923 608.583 417.612C608.583 417.612 631.801 417.363 637.785 429.062L557.639 428.752Z" fill="#ADEAC9"/>
<path d="M39.7453 423.676C39.7453 423.676 10.4337 361.842 36.2147 348.328C61.9957 334.814 54.1667 380.162 54.1667 380.162C54.1667 380.162 44.7718 414.072 44.5025 423.676C44.2333 433.28 39.7453 423.676 39.7453 423.676Z" fill="#ADEAC9"/>
<path d="M42.7473 428.044C34.8584 382.536 42.6875 352.816 42.7473 352.526L43.7446 352.806C43.6748 353.095 35.9056 382.606 43.7446 427.865L42.7473 428.044Z" fill="#50D171"/>
<path d="M39.1469 423.197C39.1469 423.197 34.0605 407.908 21.534 403.161C9.00753 398.414 -5.44379 387.094 2.06611 377.988C9.57601 368.883 30.0811 380.372 36.6037 405.624C41.0418 422.868 39.1469 423.197 39.1469 423.197Z" fill="#ADEAC9"/>
<path d="M38.6283 423.367C32.9136 405.834 25.0447 395.581 19.4696 390.066C13.4856 384.082 8.70837 382.247 8.65851 382.237L9.03749 381.24C9.23696 381.309 14.0241 383.164 20.1677 389.218C25.8425 394.813 33.8311 405.176 39.6555 422.998L38.6283 423.367Z" fill="#50D171"/>
<path d="M42.7572 425.072C42.7572 425.072 47.8436 409.793 60.3701 405.046C72.8965 400.299 87.3479 388.959 79.838 379.903C72.3281 370.847 51.8628 382.277 45.3004 407.529C40.8922 424.693 42.7572 425.072 42.7572 425.072Z" fill="#ADEAC9"/>
<path d="M43.2758 425.242L42.2785 424.913C48.1029 407.13 56.0915 396.728 61.7663 391.123C67.9398 385.029 72.737 383.145 72.8966 383.145L73.2755 384.142C73.0561 384.182 54.2465 391.702 43.2758 425.242Z" fill="#50D171"/>
<path d="M43.226 428.044C43.226 428.044 49.2698 419.278 58.0962 418.58C66.9226 417.882 78.1824 413.354 75.0508 406.203C71.9192 399.052 56.8495 402.553 48.073 417.373C42.089 427.456 43.226 428.044 43.226 428.044Z" fill="#ADEAC9"/>
<path d="M43.5152 428.244L42.8869 427.855C56.2511 408.287 69.8946 406.981 70.0342 406.971V407.679C67.1015 408.145 64.2829 409.16 61.7265 410.671C57.2684 413.114 50.3968 418.171 43.5152 428.244Z" fill="#50D171"/>
<path d="M43.5152 428.244C43.5152 428.244 37.4714 419.477 28.645 418.779C19.8186 418.081 8.55879 413.553 11.6904 406.402C14.822 399.251 29.9116 402.752 38.7081 417.572C44.6522 427.655 43.5152 428.244 43.5152 428.244Z" fill="#ADEAC9"/>
<path d="M43.226 428.443C30.0512 409.155 16.7468 407.908 16.6172 407.908L16.6671 407.2C16.8067 407.2 30.4502 408.517 43.8144 428.084L43.226 428.443Z" fill="#50D171"/>
<path d="M16.2482 428.752C16.2482 428.752 35.1975 410.94 48.073 418.37C48.073 418.37 60.4299 409.923 67.1918 417.612C67.1918 417.612 90.4097 417.363 96.3937 429.062L16.2482 428.752Z" fill="#ADEAC9"/>
<path d="M112.042 47.473H573.527C575.643 47.473 577.672 48.3136 579.168 49.8099C580.665 51.3061 581.505 53.3355 581.505 55.4516V76.3956H104.063V55.4516C104.063 53.3355 104.904 51.3061 106.4 49.8099C107.896 48.3136 109.926 47.473 112.042 47.473Z" fill="#76DFFF"/>
<path d="M104.063 76.3756H581.505V420.455C581.505 422.571 580.665 424.6 579.168 426.096C577.672 427.593 575.643 428.433 573.527 428.433H112.042C109.926 428.433 107.896 427.593 106.4 426.096C104.904 424.6 104.063 422.571 104.063 420.455V76.3756Z" fill="#E6F6FF"/>
<path d="M558.666 199.955H435.267C433.642 199.955 432.325 201.272 432.325 202.897V276.261C432.325 277.885 433.642 279.203 435.267 279.203H558.666C560.291 279.203 561.609 277.885 561.609 276.261V202.897C561.609 201.272 560.291 199.955 558.666 199.955Z" fill="#76DFFF"/>
<path d="M462.115 245.603C472.294 245.603 480.546 237.351 480.546 227.172C480.546 216.993 472.294 208.741 462.115 208.741C451.936 208.741 443.684 216.993 443.684 227.172C443.684 237.351 451.936 245.603 462.115 245.603Z" fill="#FFAB2F"/>
<path d="M554.248 222.116H488.175V232.238H554.248V222.116Z" fill="white"/>
<path d="M554.238 255.895H443.674V266.018H554.238V255.895Z" fill="white"/>
<path d="M558.666 96.9705H435.267C433.642 96.9705 432.325 98.2877 432.325 99.9126V173.276C432.325 174.901 433.642 176.218 435.267 176.218H558.666C560.291 176.218 561.609 174.901 561.609 173.276V99.9126C561.609 98.2877 560.291 96.9705 558.666 96.9705Z" fill="#76DFFF"/>
<path d="M462.115 142.618C472.294 142.618 480.546 134.367 480.546 124.188C480.546 114.009 472.294 105.757 462.115 105.757C451.936 105.757 443.684 114.009 443.684 124.188C443.684 134.367 451.936 142.618 462.115 142.618Z" fill="#FFAB2F"/>
<path d="M554.248 119.121H488.175V129.244H554.248V119.121Z" fill="white"/>
<path d="M554.238 152.911H443.674V163.034H554.238V152.911Z" fill="white"/>
<path d="M558.926 310.329H350.753C349.128 310.329 347.811 311.647 347.811 313.272V406.582C347.811 408.207 349.128 409.524 350.753 409.524H558.926C560.551 409.524 561.868 408.207 561.868 406.582V313.272C561.868 311.647 560.551 310.329 558.926 310.329Z" fill="#BBE8FC"/>
<path d="M509.169 354.78H428.136V364.903H509.169V354.78Z" fill="white"/>
<path d="M553.42 378.218H427.896V388.341H553.42V378.218Z" fill="white"/>
<path d="M402.953 316.543H367.568C362.803 316.543 358.941 320.403 358.941 325.165C358.941 329.926 362.803 333.787 367.568 333.787H402.953C407.718 333.787 411.58 329.926 411.58 325.165C411.58 320.403 407.718 316.543 402.953 316.543Z" fill="#6ADB97"/>
<path d="M465.984 316.543H430.599C425.835 316.543 421.972 320.403 421.972 325.165C421.972 329.926 425.835 333.787 430.599 333.787H465.984C470.749 333.787 474.611 329.926 474.611 325.165C474.611 320.403 470.749 316.543 465.984 316.543Z" fill="#62B9F9"/>
<path d="M410.902 367.796C410.205 361.134 406.934 355.008 401.787 350.722C396.64 346.436 390.024 344.328 383.346 344.848C376.668 345.368 370.457 348.474 366.036 353.505C361.614 358.536 359.331 365.094 359.673 371.783C360.014 378.472 362.954 384.764 367.865 389.318C372.777 393.872 379.272 396.329 385.968 396.165C392.664 396.002 399.031 393.231 403.715 388.442C408.398 383.654 411.027 377.226 411.042 370.528C411.042 369.601 410.992 368.693 410.902 367.796ZM385.4 386.276C382.403 386.272 379.47 385.414 376.944 383.801C374.418 382.188 372.405 379.887 371.141 377.17C369.877 374.453 369.415 371.431 369.808 368.46C370.202 365.489 371.435 362.692 373.363 360.398C375.291 358.103 377.834 356.406 380.692 355.507C383.551 354.607 386.607 354.542 389.502 355.319C392.396 356.096 395.009 357.682 397.033 359.892C399.057 362.102 400.409 364.844 400.929 367.796C401.09 368.698 401.17 369.612 401.168 370.528C401.169 372.598 400.762 374.648 399.97 376.561C399.178 378.473 398.016 380.211 396.551 381.674C395.087 383.137 393.348 384.296 391.434 385.086C389.521 385.876 387.47 386.28 385.4 386.276Z" fill="#2897FA"/>
<path d="M410.902 367.796H400.929C400.278 364.159 398.368 360.867 395.535 358.497C392.701 356.127 389.124 354.829 385.43 354.83V344.937C391.745 344.943 397.836 347.279 402.536 351.497C407.236 355.715 410.214 361.518 410.902 367.796Z" fill="#F9C82B"/>
<path d="M319.028 96.9705H132.726C127.218 96.9705 122.753 101.436 122.753 106.944V399.481C122.753 404.989 127.218 409.454 132.726 409.454H319.028C324.536 409.454 329.001 404.989 329.001 399.481V106.944C329.001 101.436 324.536 96.9705 319.028 96.9705Z" fill="#2897FA"/>
<path d="M298.682 208.193H159.056V226.145H298.682V208.193Z" fill="#62B9F9"/>
<path d="M304.985 301.533H141.692V319.485H304.985V301.533Z" fill="#62B9F9"/>
<path d="M241.426 332.889H141.692V350.841H241.426V332.889Z" fill="#62B9F9"/>
<path d="M278.736 243.249H179.003V261.201H278.736V243.249Z" fill="#62B9F9"/>
<path d="M228.869 193.572C247.531 193.572 262.659 178.444 262.659 159.782C262.659 141.121 247.531 125.993 228.869 125.993C210.208 125.993 195.08 141.121 195.08 159.782C195.08 178.444 210.208 193.572 228.869 193.572Z" fill="#E6F6FF"/>
<path d="M140.107 66.9209C142.861 66.9209 145.093 64.6883 145.093 61.9342C145.093 59.1802 142.861 56.9476 140.107 56.9476C137.353 56.9476 135.12 59.1802 135.12 61.9342C135.12 64.6883 137.353 66.9209 140.107 66.9209Z" fill="#2898FB"/>
<path d="M121.108 66.9209C123.862 66.9209 126.094 64.6883 126.094 61.9342C126.094 59.1802 123.862 56.9476 121.108 56.9476C118.353 56.9476 116.121 59.1802 116.121 61.9342C116.121 64.6883 118.353 66.9209 121.108 66.9209Z" fill="#78C2FF"/>
<path d="M460.549 52.4796H181.296C175.788 52.4796 171.323 56.9448 171.323 62.4529C171.323 67.961 175.788 72.4262 181.296 72.4262H460.549C466.057 72.4262 470.522 67.961 470.522 62.4529C470.522 56.9448 466.057 52.4796 460.549 52.4796Z" fill="white"/>
<path d="M573.387 61.4555C573.387 63.428 572.802 65.3563 571.706 66.9964C570.61 68.6365 569.053 69.9148 567.23 70.6696C565.408 71.4245 563.403 71.622 561.468 71.2372C559.533 70.8523 557.756 69.9025 556.362 68.5077C554.967 67.1129 554.017 65.3358 553.632 63.4012C553.247 61.4665 553.445 59.4613 554.2 57.6389C554.954 55.8165 556.233 54.2589 557.873 53.163C559.513 52.0671 561.441 51.4822 563.414 51.4822C566.059 51.4822 568.596 52.5329 570.466 54.4033C572.336 56.2736 573.387 58.8104 573.387 61.4555Z" fill="#CAF0F9"/>
<path d="M563.414 60.6277C564.961 60.6277 566.216 59.373 566.216 57.8252C566.216 56.2774 564.961 55.0227 563.414 55.0227C561.866 55.0227 560.611 56.2774 560.611 57.8252C560.611 59.373 561.866 60.6277 563.414 60.6277Z" fill="#78C2FF"/>
<path d="M569.398 65.9435V69.4242C567.671 70.7189 565.572 71.4188 563.414 71.4188C561.256 71.4188 559.156 70.7189 557.43 69.4242V65.9435C557.43 64.8855 557.85 63.8708 558.598 63.1226C559.346 62.3745 560.361 61.9542 561.419 61.9542H565.408C566.466 61.9542 567.481 62.3745 568.229 63.1226C568.977 63.8708 569.398 64.8855 569.398 65.9435Z" fill="#78C2FF"/>
<path d="M590.83 200.633C592.583 204.444 595.716 207.449 599.597 209.041C605.87 211.414 601.841 217.578 601.841 217.578C601.841 217.578 605.042 222.435 601.013 224.449C596.984 226.464 594.969 226.225 594.032 225.985C594.032 225.985 591.898 232.857 581.834 228.977C571.771 225.098 579.94 219.004 579.94 219.004C579.94 219.004 575.751 212.85 581.864 206.527C581.864 206.527 583.52 204.383 583.021 199.636" fill="#070707"/>
<path d="M612.911 278.884C613.091 275.792 608.423 271.713 609.919 268.352C613.17 261.33 616.833 254.506 620.89 247.916C621.598 242.83 613.031 232.498 608.134 230.962L596.405 228.518C594.349 227.88 592.148 227.88 590.092 228.518L583.201 231.949C578.294 233.495 572.13 239.319 572.838 244.406C572.838 244.406 577.556 277.727 586.801 287.81L612.911 278.884Z" fill="#E8878B"/>
<path d="M593.413 237.365C594.277 237.365 595.132 237.184 595.921 236.833C596.711 236.483 597.418 235.97 597.997 235.329C598.576 234.688 599.014 233.933 599.283 233.112C599.551 232.291 599.645 231.422 599.557 230.563L598.041 215.772C597.925 214.625 597.388 213.562 596.533 212.788C595.678 212.014 594.566 211.585 593.413 211.584C592.259 211.583 591.145 212.011 590.288 212.785C589.431 213.559 588.892 214.624 588.776 215.772L587.27 230.563C587.182 231.422 587.275 232.291 587.544 233.112C587.813 233.933 588.251 234.688 588.83 235.329C589.409 235.97 590.116 236.483 590.906 236.833C591.695 237.184 592.549 237.365 593.413 237.365Z" fill="#E8878B"/>
<path d="M587.745 214.052C588.252 212.364 587.294 210.584 585.605 210.078C583.917 209.571 582.138 210.529 581.631 212.218C581.125 213.906 582.083 215.685 583.771 216.192C585.459 216.698 587.239 215.74 587.745 214.052Z" stroke="white" stroke-width="0.5" stroke-miterlimit="10"/>
<path d="M587.589 227.531C587.589 227.531 596.565 227.531 598.33 218.455L588.786 215.792L587.589 227.531Z" fill="#D6656D"/>
<path d="M593.413 221.756H593.423C598.893 221.756 603.327 217.323 603.327 211.853V202.927C603.327 197.457 598.893 193.023 593.423 193.023H593.413C587.944 193.023 583.51 197.457 583.51 202.927V211.853C583.51 217.323 587.944 221.756 593.413 221.756Z" fill="#E8878B"/>
<path d="M598.669 202.458C598.669 202.458 597.732 200.773 590.391 200.533C590.391 200.533 585.175 204.802 582.094 199.346C579.012 193.891 587.749 181.943 593.354 191.178C593.354 191.178 598.48 189.234 604.603 192.834C607.486 194.636 609.63 197.409 610.647 200.653C612.403 204.462 615.535 207.466 619.414 209.06C625.697 211.434 621.668 217.598 621.668 217.598C621.668 217.598 624.869 222.455 620.84 224.469C616.811 226.484 614.796 226.244 613.859 226.005C613.859 226.005 611.724 232.877 601.651 228.997C591.578 225.117 599.756 219.024 599.756 219.024C599.756 219.024 594.6 214.875 600.644 211.564C600.634 211.534 600.255 204.632 598.669 202.458Z" fill="#070707"/>
<path d="M600.694 211.374C602.03 211.374 603.117 209.609 603.117 208.193C603.117 206.777 602.03 206.258 600.694 206.258V211.374Z" fill="#E8878B"/>
<path d="M602.04 207.914C601.761 208.127 601.54 208.407 601.395 208.727C601.251 209.047 601.188 209.398 601.213 209.749C601.455 209.584 601.748 209.509 602.04 209.539" stroke="#B73D46" stroke-width="0.3" stroke-miterlimit="10"/>
<path d="M591.638 207.564C591.638 207.564 591.199 211.554 590.641 212.302C590.082 213.05 592.087 212.81 592.087 212.81" stroke="#B73D46" stroke-width="0.3" stroke-miterlimit="10"/>
<path d="M593.254 216.161C592.548 216.495 591.776 216.668 590.995 216.668C590.214 216.668 589.442 216.495 588.736 216.161" stroke="#B73D46" stroke-width="0.3" stroke-miterlimit="10"/>
<path d="M585.714 208.073C586.204 208.073 586.602 207.676 586.602 207.185C586.602 206.695 586.204 206.298 585.714 206.298C585.224 206.298 584.826 206.695 584.826 207.185C584.826 207.676 585.224 208.073 585.714 208.073Z" fill="#070707"/>
<path d="M587.828 205.999L588.147 205.61C587.43 205.012 586.532 204.676 585.599 204.656C584.665 204.636 583.753 204.934 583.011 205.5L583.33 205.889C583.977 205.385 584.779 205.12 585.599 205.14C586.419 205.16 587.207 205.464 587.828 205.999Z" fill="#070707"/>
<path d="M596.046 208.293C596.537 208.293 596.934 207.895 596.934 207.405C596.934 206.915 596.537 206.517 596.046 206.517C595.556 206.517 595.159 206.915 595.159 207.405C595.159 207.895 595.556 208.293 596.046 208.293Z" fill="#070707"/>
<path d="M598.161 206.218L598.48 205.829C597.764 205.232 596.866 204.897 595.934 204.879C595.002 204.861 594.092 205.161 593.354 205.729L593.663 206.118C594.309 205.613 595.11 205.347 595.93 205.365C596.75 205.383 597.538 205.685 598.161 206.218Z" fill="#070707"/>
<path d="M601.911 213.1C601.911 213.1 599.138 216.371 601.841 217.578" stroke="white" stroke-width="0.5" stroke-miterlimit="10"/>
<path d="M619.224 221.756C619.224 221.756 618.387 224.868 613.24 223.651" stroke="white" stroke-width="0.5" stroke-miterlimit="10"/>
<path d="M583.011 222.285C583.011 222.285 579.182 224.719 584.647 227.621" stroke="white" stroke-width="0.5" stroke-miterlimit="10"/>
<path d="M598.353 200.845C599.008 198.661 597.769 196.359 595.585 195.704C593.401 195.049 591.099 196.288 590.443 198.472C589.788 200.657 591.028 202.958 593.212 203.614C595.396 204.269 597.698 203.03 598.353 200.845Z" fill="#070707"/>
<path d="M581.007 255.017L549.212 282.683C546.529 285.027 542.859 285.745 540.415 283.142C539.816 282.501 539.35 281.748 539.044 280.926C538.738 280.104 538.598 279.229 538.632 278.353C538.667 277.476 538.875 276.615 539.244 275.819C539.613 275.024 540.137 274.309 540.784 273.717L575.053 242.571L581.007 255.017Z" fill="#E8878B"/>
<path d="M556.941 259.047C556.941 259.047 558.138 266.257 563.733 270.017L568.38 265.978L560.581 255.706L556.941 259.047Z" fill="#D6656D"/>
<path d="M538.321 251.597L550.947 275.263L539.189 281.177L530.282 255.247C530.012 254.431 530.034 253.546 530.342 252.744C530.703 251.717 531.325 250.803 532.147 250.091C533.085 249.363 534.661 249.502 535.877 249.771C536.391 249.884 536.875 250.105 537.297 250.42C537.718 250.735 538.067 251.136 538.321 251.597Z" fill="#E8878B"/>
<path d="M538.451 250.988C538.483 251.534 538.608 252.07 538.82 252.574L540.555 256.723C540.555 256.723 541.223 258.398 537.383 259.964C533.544 261.53 533.195 260.114 533.195 260.114L527.959 251.417L526.852 249.801C526.159 248.802 525.736 247.641 525.625 246.43L525.146 241.334C525.111 241.03 525.178 240.722 525.337 240.46C525.496 240.198 525.737 239.997 526.024 239.888C526.592 239.688 527.36 239.888 528.148 241.284C529.724 244.166 528.936 245.792 533.065 246.271C534.094 245.861 535.201 245.687 536.306 245.762C536.716 245.803 537.107 245.953 537.439 246.197C537.77 246.441 538.03 246.77 538.191 247.148L538.451 250.988Z" fill="#E8878B"/>
<path d="M529.425 234.782C529.486 234.7 529.568 234.636 529.662 234.597C529.757 234.557 529.86 234.543 529.961 234.556C530.062 234.57 530.158 234.609 530.239 234.672C530.32 234.734 530.383 234.817 530.422 234.911C530.578 235.278 530.652 235.674 530.638 236.072C530.624 236.47 530.523 236.86 530.342 237.215C529.495 239.21 528.697 240.536 529.435 243.199C530.173 245.862 531.29 248.525 531.29 248.525L528.906 247.597C528.906 247.597 526.393 244.406 526.463 241.065C526.473 238.452 528.497 235.849 529.425 234.782Z" fill="#E8878B"/>
<path d="M535.798 249.622C537.147 249.622 538.241 248.528 538.241 247.178C538.241 245.829 537.147 244.735 535.798 244.735C534.448 244.735 533.354 245.829 533.354 247.178C533.354 248.528 534.448 249.622 535.798 249.622Z" fill="#E8878B"/>
<path d="M533.504 239.798L535.189 241.155C535.692 241.562 536.097 242.076 536.376 242.661L538.101 246.381L533.613 246.081C533.613 246.081 534.302 244.416 533.344 243.488C532.641 242.718 532.161 241.769 531.958 240.746C531.935 240.556 531.967 240.364 532.05 240.192C532.133 240.02 532.264 239.876 532.427 239.776C532.59 239.676 532.778 239.625 532.969 239.629C533.159 239.633 533.345 239.692 533.504 239.798Z" fill="#E8878B"/>
<path d="M531.29 233.954C531.373 233.907 531.467 233.881 531.562 233.88C531.658 233.878 531.752 233.901 531.837 233.946C531.921 233.99 531.993 234.056 532.046 234.136C532.098 234.215 532.13 234.307 532.137 234.403C532.162 234.799 532.099 235.196 531.953 235.565C531.806 235.934 531.58 236.266 531.29 236.537C529.804 238.153 528.607 239.11 528.417 241.813C528.299 243.689 528.276 245.569 528.348 247.448L526.423 245.762C526.423 245.762 525.136 241.913 526.343 238.781C527.26 236.367 530.043 234.642 531.29 233.954Z" fill="#E8878B"/>
<path d="M530.033 233.226C530.111 233.171 530.201 233.136 530.296 233.125C530.391 233.114 530.487 233.127 530.575 233.162C530.664 233.198 530.742 233.256 530.802 233.329C530.862 233.403 530.903 233.491 530.921 233.585C530.983 233.979 530.958 234.382 530.846 234.765C530.734 235.148 530.538 235.501 530.272 235.799C528.936 237.534 527.839 238.601 527.889 241.314C527.943 243.192 528.093 245.066 528.338 246.929L525.535 245.503C525.535 245.503 524.737 241.045 525.535 238.522C526.333 235.998 528.856 234.014 530.033 233.226Z" fill="#E8878B"/>
<path d="M579.531 233.306C579.531 233.306 573.896 234.582 558.756 256.862C558.756 256.862 560.821 267.324 569.916 270.147C569.916 270.147 580.338 263.944 584.248 257.301" fill="#FFAB2F"/>
<path d="M571.891 269.209C562.576 265.061 560.272 255.367 560.172 254.958L561.17 254.738C561.17 254.838 563.464 264.352 572.31 268.292L571.891 269.209Z" fill="white"/>
<path d="M547.087 267.993L546.399 270.566" stroke="black" stroke-width="0.3" stroke-miterlimit="10"/>
<path d="M597.752 434.467H565.907C565.408 431.475 567.533 430.847 567.533 430.847C572.97 429.65 578.039 427.163 582.313 423.596C586.632 420.285 586.432 412.725 586.432 412.725H597.263L597.752 434.467Z" fill="#E8878B"/>
<path d="M567.533 430.847C568.972 430.537 570.393 430.151 571.791 429.69C573.812 428.947 575.75 427.998 577.576 426.858C580.398 428.443 588.217 430.647 597.782 431.844V434.437H565.907C565.408 431.465 567.533 430.847 567.533 430.847Z" fill="#1C3D4F"/>
<path d="M565.837 434.467V435.754H597.173L597.483 434.467H565.837Z" fill="#FFF3F3"/>
<path d="M586.432 412.725L584.557 374.827C584.604 373.488 585.168 372.22 586.132 371.289C587.096 370.359 588.384 369.839 589.723 369.84C590.434 369.841 591.136 369.988 591.787 370.272C592.438 370.556 593.024 370.971 593.507 371.492C593.991 372.012 594.362 372.626 594.598 373.296C594.834 373.966 594.93 374.677 594.879 375.385L597.253 412.666C597.253 412.666 594.461 415.448 591.538 415.269C589.597 415.026 587.796 414.129 586.432 412.725Z" fill="#E8878B"/>
<path d="M589.424 391.093C592.311 392.464 595.485 393.12 598.679 393.008L599.078 387.533L589.624 386.276L589.424 391.093Z" fill="#DD7A81"/>
<path d="M575.372 275.682C575.372 275.682 567.922 292.537 571.173 315.047C571.712 328.012 576.479 367.297 581.007 400.757H599.956C598.959 385.498 598.43 360.685 594.78 346.333C590.611 329.937 591.788 321.021 593.104 316.742C593.645 315.724 594.118 314.671 594.52 313.591C594.56 313.534 594.603 313.481 594.65 313.431V313.361C599.348 300.685 595.647 283.97 595.647 283.97C589.494 276.171 583.51 274.056 578.753 274.136" fill="#64C3F9"/>
<path d="M586.582 306.719L585.704 342.623L587.459 366.459L594.281 400.757H597.273L596.375 382.805L592.895 366.788L589.334 315.047C589.334 315.047 589.803 308.724 586.582 306.719Z" fill="#41B1D8"/>
<path d="M614.048 434.467H582.203C581.705 431.475 583.829 430.847 583.829 430.847C589.265 429.648 594.334 427.161 598.609 423.596C602.928 420.285 602.728 412.725 602.728 412.725H613.559L614.048 434.467Z" fill="#E8878B"/>
<path d="M583.829 430.847C585.268 430.536 586.689 430.15 588.088 429.69C590.107 428.945 592.046 427.996 593.872 426.858C596.695 428.443 604.514 430.647 614.068 431.844V434.437H582.203C581.705 431.465 583.829 430.847 583.829 430.847Z" fill="#1C3D4F"/>
<path d="M582.124 434.467V435.754H613.46L613.779 434.467H582.124Z" fill="#FFF3F3"/>
<path d="M602.729 412.725L600.854 374.827C600.9 373.488 601.465 372.22 602.429 371.289C603.392 370.359 604.68 369.839 606.02 369.84C606.73 369.84 607.434 369.986 608.085 370.269C608.737 370.553 609.323 370.968 609.807 371.488C610.291 372.009 610.662 372.624 610.898 373.294C611.133 373.965 611.228 374.677 611.176 375.385L613.559 412.666C613.559 412.666 610.767 415.448 607.845 415.269C605.899 415.031 604.093 414.134 602.729 412.725Z" fill="#E8878B"/>
<path d="M605.74 391.093C608.632 392.461 611.809 393.117 615.006 393.008L615.405 387.533L605.95 386.276L605.74 391.093Z" fill="#DD7A81"/>
<path d="M579.511 292.318L581.585 299.658C581.585 299.658 572.021 298.341 585.704 300.815C586.522 306.38 587.39 311.526 587.459 315.047C586.781 327.124 592.765 367.297 597.303 400.757H616.252L611.984 313.431L611.894 283.97C611.894 283.97 607.256 281.227 584.886 277.846" fill="#64C3F9"/>
<path d="M605.8 230.463C605.8 230.463 599.597 246.929 587.24 246.211C587.24 246.211 579.152 244.516 582.014 232.368L578.723 233.595C578.723 233.595 562.765 260.662 580.448 282.464C583.8 285.712 588.069 287.851 592.677 288.591C597.285 289.332 602.009 288.638 606.209 286.603L612.143 283.731C612.143 283.731 612.572 274.615 613.53 272.471C614.487 270.326 624.56 245.333 615.265 233.894C612.436 231.998 609.187 230.82 605.8 230.463Z" fill="#FFAB2F"/>
<path d="M573.686 280.479C573.686 280.479 582.473 287.75 593.104 288.627L578.144 266.975C576.419 271.394 574.931 275.902 573.686 280.479Z" fill="#FFAB2F"/>
<path d="M572.958 283.312C577.933 287.17 583.704 289.872 589.853 291.221C599.986 293.405 611.884 287.371 611.884 287.371" stroke="black" stroke-width="0.3" stroke-miterlimit="10"/>
<path d="M573.806 270.147C573.806 270.147 569.507 259.685 574.494 243.558" stroke="black" stroke-width="0.3" stroke-miterlimit="10"/>
<path d="M627.781 253.043L640.378 293.265C641.455 296.666 640.637 300.306 637.276 301.503C636.449 301.795 635.571 301.92 634.695 301.871C633.819 301.822 632.962 301.599 632.172 301.216C631.383 300.833 630.677 300.297 630.097 299.639C629.516 298.981 629.071 298.215 628.789 297.384L613.998 253.501L627.781 253.043Z" fill="#E8878B"/>
<path d="M620.88 273.548C620.88 273.548 627.961 275.353 633.636 271.723L631.801 265.858L619.254 268.85L620.88 273.548Z" fill="#D6656D"/>
<path d="M610.039 281.935L635.969 288.637L632.369 301.294L607.256 290.323C606.468 289.976 605.829 289.361 605.451 288.588C604.939 287.629 604.688 286.552 604.723 285.466C604.823 284.279 605.99 283.212 607.017 282.474C607.453 282.173 607.948 281.969 608.469 281.877C608.991 281.784 609.526 281.804 610.039 281.935Z" fill="#E8878B"/>
<path d="M610.418 231.201C610.418 231.201 629.956 236.637 635.541 268.561C635.541 268.561 625.827 274.715 618.925 270.785C618.925 270.785 613.889 258.568 610.278 253.452" fill="#FFAB2F"/>
<path d="M614.517 261.021L610.278 253.452" stroke="black" stroke-width="0.3" stroke-miterlimit="10"/>
<path d="M621.608 269.788C620.444 269.788 619.281 269.712 618.127 269.559L618.257 268.561C623.868 269.251 629.554 268.151 634.503 265.42L635.032 266.267C630.936 268.579 626.311 269.792 621.608 269.788Z" fill="white"/>
<path d="M606.798 280.659C607.375 280.716 607.932 280.898 608.432 281.192C608.931 281.487 609.361 281.887 609.69 282.364L610.248 283.172C610.673 283.789 610.972 284.484 611.128 285.217C611.283 285.95 611.293 286.706 611.156 287.443C611.019 288.179 610.738 288.882 610.329 289.509C609.92 290.137 609.391 290.678 608.772 291.101L606.488 291.829C606.488 291.829 596.864 286.463 599.148 286.383C603.078 286.244 605.272 286.104 605.272 286.104" fill="#E8878B"/>
<path d="M608.822 290.562C608.822 290.562 597.762 289.964 599.846 288.987C607.416 285.366 602.24 284.658 602.24 284.658C601.056 284.534 599.895 284.249 598.789 283.81C598.708 283.769 598.636 283.711 598.578 283.64C598.519 283.57 598.476 283.489 598.45 283.401C598.424 283.314 598.416 283.222 598.426 283.131C598.436 283.04 598.465 282.952 598.51 282.873L598.629 282.653C598.777 282.394 599.015 282.199 599.298 282.105C600.704 281.666 602.1 281.237 604.125 280.439C604.666 280.232 605.247 280.145 605.826 280.184C606.404 280.224 606.968 280.389 607.476 280.669L608.334 281.138C609.657 281.869 610.636 283.097 611.055 284.55C611.474 286.003 611.298 287.563 610.568 288.887L608.822 290.562Z" fill="#E8878B"/>
<path d="M594.122 286.324C594.122 286.324 596.854 294.013 606.488 291.829L607.147 285.925L594.122 286.324Z" fill="#E8878B"/>
<path d="M625.478 285.925L627.402 287.81" stroke="black" stroke-width="0.3" stroke-miterlimit="10"/>
<path d="M575.771 283.98H605.441C605.706 283.98 605.959 284.085 606.146 284.272C606.333 284.459 606.439 284.713 606.439 284.977V285.237C606.439 285.501 606.333 285.755 606.146 285.942C605.959 286.129 605.706 286.234 605.441 286.234H575.771V283.96V283.98Z" fill="#7988BF"/>
<path d="M536.067 258.957H569.847C570.07 258.949 570.291 259.016 570.471 259.148C570.652 259.28 570.784 259.469 570.844 259.685L578.394 286.234H542.869L535.109 260.224C535.068 260.076 535.061 259.92 535.09 259.769C535.118 259.618 535.182 259.475 535.274 259.353C535.367 259.23 535.487 259.131 535.624 259.062C535.762 258.993 535.913 258.957 536.067 258.957Z" fill="#A0BAEA"/>
<path d="M534.77 258.957H568.55C568.774 258.949 568.994 259.016 569.175 259.148C569.356 259.28 569.487 259.469 569.547 259.685L577.097 286.234H542.32C542.098 286.243 541.878 286.177 541.698 286.047C541.517 285.917 541.385 285.73 541.323 285.516L533.773 260.224C533.73 260.072 533.724 259.913 533.755 259.759C533.786 259.605 533.852 259.46 533.95 259.337C534.047 259.213 534.172 259.114 534.314 259.048C534.457 258.982 534.613 258.951 534.77 258.957Z" fill="#B8CAFC"/>
<path d="M554.298 276.719C556.364 276.719 558.038 275.045 558.038 272.979C558.038 270.914 556.364 269.239 554.298 269.239C552.233 269.239 550.558 270.914 550.558 272.979C550.558 275.045 552.233 276.719 554.298 276.719Z" fill="white"/>
<path d="M132.766 142.858C172.215 142.858 204.195 110.878 204.195 71.4288C204.195 31.9798 172.215 0 132.766 0C93.3173 0 61.3375 31.9798 61.3375 71.4288C61.3375 110.878 93.3173 142.858 132.766 142.858Z" fill="#FAB6D8"/>
<path d="M135.738 30.259C135.738 30.259 141.972 18.291 154.967 28.4339C167.962 38.5767 164.561 54.165 164.561 54.165C164.561 54.165 162.995 65.1357 175.213 64.8265C187.43 64.5173 198.61 66.6416 197.832 78.081C197.832 78.5697 197.742 79.0784 197.683 79.5072C196.536 87.6155 188.707 93.1008 180.628 92.0636L177.058 91.6148C174.867 91.3346 172.641 91.6275 170.598 92.4648C168.554 93.3022 166.763 94.6553 165.399 96.392L161.499 101.379C159.604 103.79 156.905 105.439 153.895 106.025C150.885 106.611 147.764 106.095 145.103 104.57L109.199 83.9752C106.307 82.3558 104.165 79.667 103.233 76.486C102.3 73.305 102.652 69.8853 104.213 66.9608C106.07 63.6895 108.678 60.9068 111.822 58.8425C124.04 50.5248 120.399 40.1326 120.399 40.1326C120.399 40.1326 118.834 24.5343 135.738 30.259Z" fill="black"/>
<path d="M147.676 86.9174L176.18 111.701C178.594 113.805 181.875 114.444 184.059 112.11C184.599 111.537 185.019 110.862 185.295 110.125C185.571 109.388 185.697 108.604 185.666 107.817C185.636 107.031 185.449 106.258 185.116 105.545C184.784 104.832 184.312 104.192 183.73 103.663L153.012 75.7373L147.676 86.9174Z" fill="#E8878B"/>
<path d="M169.249 90.5277C169.249 90.5277 168.182 96.9904 163.155 100.341L158.996 96.7411L165.977 87.5357L169.249 90.5277Z" fill="#D6656D"/>
<path d="M185.944 83.8456L174.624 105.019L185.166 110.325L193.145 87.0769C193.409 86.3523 193.409 85.5576 193.145 84.8329C192.818 83.9062 192.246 83.0857 191.489 82.4593C190.651 81.8011 189.235 81.9207 188.148 82.1701C187.682 82.2737 187.243 82.4772 186.862 82.7664C186.482 83.0556 186.169 83.4238 185.944 83.8456Z" fill="#E8878B"/>
<path d="M149.482 66.8212C149.482 66.8212 154.059 68.6363 167.623 88.6029C167.623 88.6029 165.768 97.9877 157.65 100.571C157.65 100.571 148.305 95.0057 144.794 89.0517" fill="white"/>
<path d="M178.085 98.5463L178.703 100.85" stroke="black" stroke-width="0.3" stroke-miterlimit="10"/>
<path d="M196.536 85.6807L195.947 75.5378L191.02 77.1635C191.118 75.9164 191.048 74.6618 190.811 73.4335C190.783 73.3417 190.736 73.2567 190.675 73.1834C190.613 73.1102 190.536 73.0503 190.451 73.0074C190.365 72.9645 190.271 72.9395 190.175 72.9338C190.08 72.9282 189.984 72.9421 189.893 72.9747L189.644 73.0545C189.345 73.1544 189.095 73.3649 188.946 73.6429C188.228 75.0092 187.51 76.3656 186.293 78.3004C185.973 78.8184 185.77 79.4004 185.699 80.0053C185.629 80.6102 185.692 81.2232 185.884 81.8011L186.203 82.7984C186.449 83.5462 186.84 84.2382 187.354 84.8346C187.868 85.431 188.494 85.9202 189.198 86.2741C189.901 86.628 190.667 86.8397 191.452 86.8971C192.237 86.9544 193.026 86.8562 193.773 86.6082L196.536 85.6807Z" fill="#E8878B"/>
<path d="M201.817 69.2181L195.111 66.4633C194.29 66.1264 193.352 66.5183 193.015 67.3386L186.066 84.258C185.729 85.0783 186.121 86.0164 186.941 86.3533L193.648 89.1081C194.468 89.4451 195.406 89.0532 195.743 88.2329L202.693 71.3135C203.03 70.4932 202.638 69.5551 201.817 69.2181Z" fill="#60B1F4"/>
<path d="M192.637 66.7986L185.422 84.3638C185.159 85.0058 185.465 85.7399 186.107 86.0036L193.46 89.0237C194.102 89.2874 194.836 88.9807 195.1 88.3387L202.314 70.7735C202.578 70.1316 202.271 69.3974 201.629 69.1337L194.277 66.1136C193.635 65.8499 192.901 66.1566 192.637 66.7986Z" fill="#C0E6FF"/>
<path d="M192.854 66.9326L186.526 82.339C186.309 82.8689 186.562 83.4749 187.092 83.6925L194.371 86.6823C194.901 86.8999 195.507 86.6468 195.724 86.1169L202.052 70.7105C202.27 70.1806 202.017 69.5746 201.487 69.3569L194.208 66.3672C193.678 66.1496 193.072 66.4027 192.854 66.9326Z" fill="white"/>
<path d="M202.414 71.3175L202.405 71.3137C202.319 71.2781 202.219 71.3195 202.184 71.4061L201.756 72.4486C201.72 72.5352 201.761 72.6342 201.848 72.6698L201.857 72.6736C201.944 72.7092 202.043 72.6678 202.079 72.5812L202.507 71.5387C202.542 71.4521 202.501 71.353 202.414 71.3175Z" fill="#C0E6FF"/>
<path d="M189.953 87.0869C190.427 87.0869 190.811 86.7029 190.811 86.2292C190.811 85.7555 190.427 85.3715 189.953 85.3715C189.48 85.3715 189.096 85.7555 189.096 86.2292C189.096 86.7029 189.48 87.0869 189.953 87.0869Z" fill="#60B1F4"/>
<path d="M199.208 68.8827L196.837 67.9089C196.77 67.8817 196.696 67.9112 196.669 67.9749C196.643 68.0386 196.676 68.1123 196.742 68.1395L199.113 69.1134C199.179 69.1406 199.254 69.111 199.28 69.0473C199.306 68.9836 199.274 68.9099 199.208 68.8827Z" fill="#60B1F4"/>
<path d="M196.509 67.908C196.535 67.8445 196.505 67.7719 196.442 67.7458C196.378 67.7198 196.305 67.7501 196.279 67.8136C196.253 67.8771 196.284 67.9497 196.347 67.9758C196.411 68.0019 196.483 67.9715 196.509 67.908Z" fill="#60B1F4"/>
<path d="M194.611 78.9886C194.636 78.7082 194.768 78.4483 194.98 78.2627C195.192 78.0771 195.466 77.9799 195.748 77.9913L200.355 78.1409C200.532 78.1468 200.705 78.1889 200.864 78.2645C201.023 78.3401 201.165 78.4477 201.281 78.5805C201.397 78.7133 201.485 78.8685 201.538 79.0365C201.592 79.2045 201.61 79.3817 201.592 79.5571C201.576 79.7254 201.527 79.8889 201.447 80.0382C201.368 80.1875 201.259 80.3196 201.129 80.4271C200.998 80.5346 200.848 80.6152 200.686 80.6644C200.524 80.7136 200.354 80.7305 200.186 80.714L195.598 80.1754C195.455 80.1642 195.315 80.1244 195.187 80.0583C195.059 79.9921 194.946 79.9011 194.854 79.7904C194.762 79.6798 194.693 79.5518 194.651 79.4141C194.609 79.2764 194.596 79.1317 194.611 78.9886Z" fill="#E8878B"/>
<path d="M194.84 80.9932C194.87 80.7252 195.002 80.4789 195.208 80.3046C195.413 80.1303 195.678 80.0413 195.947 80.0557L199.717 80.2652C199.887 80.2736 200.054 80.3169 200.207 80.3923C200.36 80.4676 200.495 80.5736 200.606 80.7035C200.716 80.8334 200.799 80.9845 200.848 81.1476C200.898 81.3106 200.913 81.4821 200.894 81.6514C200.878 81.8159 200.829 81.9755 200.751 82.1212C200.673 82.2668 200.567 82.3957 200.44 82.5004C200.312 82.605 200.165 82.6835 200.006 82.7312C199.848 82.7789 199.682 82.795 199.518 82.7784L195.778 82.19C195.636 82.1767 195.499 82.1346 195.374 82.0664C195.249 81.9981 195.139 81.9052 195.052 81.7932C194.964 81.6812 194.9 81.5525 194.864 81.415C194.827 81.2774 194.819 81.1339 194.84 80.9932Z" fill="#E8878B"/>
<path d="M194.701 82.8682C194.731 82.6106 194.86 82.3748 195.061 82.211C195.262 82.0471 195.519 81.9681 195.778 81.9906L198.61 82.22C198.774 82.2261 198.936 82.2656 199.084 82.3358C199.233 82.4061 199.366 82.5057 199.475 82.6288C199.584 82.7518 199.667 82.8957 199.719 83.0517C199.771 83.2077 199.791 83.3726 199.777 83.5364C199.725 83.8447 199.556 84.1209 199.305 84.3069C199.054 84.4929 198.74 84.5742 198.431 84.5338L195.628 83.9453C195.496 83.9365 195.367 83.9016 195.249 83.8424C195.13 83.7833 195.025 83.7013 194.939 83.601C194.852 83.5008 194.787 83.3844 194.746 83.2586C194.705 83.1328 194.69 83.0001 194.701 82.8682Z" fill="#E8878B"/>
<path d="M194.381 84.2944C194.411 84.0511 194.529 83.8272 194.713 83.6653C194.897 83.5034 195.134 83.4149 195.379 83.4167L197.543 83.8356C197.704 83.8441 197.862 83.8855 198.007 83.9573C198.152 84.029 198.281 84.1297 198.385 84.2529C198.49 84.3762 198.568 84.5195 198.616 84.6742C198.663 84.8288 198.678 84.9914 198.66 85.1521C198.613 85.4529 198.452 85.7241 198.211 85.9098C197.97 86.0954 197.666 86.1812 197.363 86.1494L195.219 85.3615C194.971 85.3221 194.746 85.1902 194.591 84.9923C194.436 84.7944 194.361 84.5451 194.381 84.2944Z" fill="#E8878B"/>
<path d="M200.635 80.7339L195.429 80.1555" stroke="#B73D46" stroke-width="0.3" stroke-miterlimit="10"/>
<path d="M199.518 82.7585L195.508 82.1003" stroke="#B73D46" stroke-width="0.3" stroke-miterlimit="10"/>
<path d="M198.431 84.5736L194.87 83.5464" stroke="#B73D46" stroke-width="0.3" stroke-miterlimit="10"/>
<path d="M119.302 168.05C120.229 168.276 121.173 168.423 122.125 168.489L124.119 168.589C127.111 168.589 130.343 168.27 133.095 168.24C137.982 168.24 142.879 168.08 147.766 167.831C148.172 167.811 148.578 167.869 148.963 168C149.174 167.964 149.387 167.944 149.601 167.94C149.881 167.944 150.159 167.98 150.429 168.05C151.097 150.956 146.32 115.68 146.32 115.68C146.32 115.68 121.885 83.1873 110.187 110.484C101.081 131.737 98.7574 157.708 98.2188 168.17C103.904 168.818 109.588 168.08 115.303 168.17L117.198 168.22C117.854 167.902 118.604 167.842 119.302 168.05Z" fill="#4D36B2"/>
<path d="M137.813 63.6995C137.813 63.6995 113.119 62.7022 109.997 69.4142C106.876 76.1262 110.257 110.484 110.257 110.484C110.257 110.484 108.89 114.723 129.206 117.466C146.36 119.799 146.36 115.64 146.36 115.64C146.36 115.64 157.281 97.1899 156.244 82.1102C155.206 67.0306 147.168 65.8238 147.168 65.8238L137.813 63.6995Z" fill="white"/>
<path d="M154.967 87.3362C154.967 87.3362 158.258 94.1879 153.97 98.0675C152.22 104.246 149.672 110.171 146.39 115.69" stroke="black" stroke-width="0.3" stroke-miterlimit="10"/>
<path d="M136.367 70.4414C135.62 70.2352 134.925 69.8742 134.327 69.3819C133.728 68.8896 133.24 68.277 132.894 67.5839C132.548 66.8907 132.352 66.1325 132.318 65.3585C132.284 64.5845 132.413 63.812 132.697 63.0911L137.544 50.6843C137.924 49.7287 138.642 48.946 139.561 48.4846C140.48 48.0231 141.537 47.9151 142.53 48.181C143.526 48.4577 144.384 49.0947 144.937 49.9683C145.49 50.8418 145.698 51.8897 145.522 52.9084L143.278 66.0432C143.148 66.804 142.861 67.5292 142.433 68.172C142.006 68.8148 141.449 69.361 140.798 69.7754C140.147 70.1898 139.416 70.4631 138.653 70.5778C137.89 70.6925 137.111 70.6461 136.367 70.4414Z" fill="#E8878B"/>
<path d="M143.777 63.3405C143.777 63.3405 136.028 61.1863 136.676 52.9184H145.552L143.777 63.3405Z" fill="#D6656D"/>
<path d="M139.369 133.642C136.237 136.963 134.242 139.955 130.253 140.953C129.256 149.929 129.256 157.907 127.66 167.252" stroke="black" stroke-width="0.3" stroke-miterlimit="10"/>
<path d="M98.2786 86.0696L86.9889 122.123C85.9915 125.175 86.7595 128.446 89.7714 129.513C91.2686 130.029 92.9092 129.93 94.3337 129.238C95.7581 128.547 96.8504 127.319 97.3711 125.823L110.636 86.4785L98.2786 86.0696Z" fill="#E8878B"/>
<path d="M104.472 104.46C104.472 104.46 98.1091 106.076 93.0327 102.815L94.6783 97.5589L105.918 100.272L104.472 104.46Z" fill="#D6656D"/>
<path d="M114.186 111.98L90.9383 117.964L94.1796 129.324L116.689 119.45C117.391 119.133 117.961 118.583 118.305 117.894C118.763 117.033 118.989 116.067 118.963 115.092C118.874 114.035 117.826 113.097 116.909 112.439C116.515 112.17 116.068 111.99 115.598 111.91C115.128 111.831 114.646 111.855 114.186 111.98Z" fill="#E8878B"/>
<path d="M113.837 66.4921C113.837 66.4921 96.3239 71.359 91.3173 99.9824C91.3173 99.9824 100.024 105.498 106.217 101.977C106.217 101.977 110.735 91.0065 113.967 86.4387" fill="white"/>
<path d="M110.167 93.2305L113.967 86.4387" stroke="black" stroke-width="0.3" stroke-miterlimit="10"/>
<path d="M117.088 110.833C116.57 110.881 116.069 111.043 115.621 111.306C115.173 111.57 114.788 111.93 114.495 112.359L113.997 113.077C113.229 114.195 112.936 115.572 113.183 116.905C113.43 118.239 114.196 119.419 115.313 120.188L117.368 120.847C117.368 120.847 124.947 117.506 122.903 117.436C119.382 117.306 118.455 115.71 118.455 115.71" fill="#E8878B"/>
<path d="M115.273 119.68C115.273 119.68 125.246 119.141 123.342 118.263C116.56 115.022 121.207 114.384 121.207 114.384C122.268 114.277 123.309 114.021 124.299 113.626C124.372 113.587 124.436 113.534 124.488 113.471C124.54 113.407 124.579 113.333 124.602 113.254C124.625 113.175 124.632 113.093 124.623 113.011C124.614 112.929 124.588 112.85 124.548 112.778L124.439 112.589C124.376 112.472 124.291 112.368 124.189 112.284C124.086 112.2 123.967 112.138 123.84 112.1C122.574 111.701 121.327 111.322 119.512 110.604C119.029 110.415 118.511 110.335 117.993 110.369C117.476 110.404 116.973 110.552 116.52 110.803L115.752 111.232C115.16 111.557 114.638 111.996 114.217 112.524C113.795 113.051 113.483 113.657 113.297 114.307C113.112 114.956 113.057 115.636 113.136 116.306C113.215 116.977 113.426 117.625 113.757 118.214L115.273 119.68Z" fill="#E8878B"/>
<path d="M128.458 115.91C128.458 115.91 126.004 122.801 117.368 120.896L116.779 115.601L120.399 116.598C122.211 117.067 124.113 117.067 125.925 116.598L128.458 115.91Z" fill="#E8878B"/>
<path d="M130.812 113.018C130.83 112.933 130.827 112.846 130.803 112.763C130.779 112.681 130.735 112.605 130.674 112.544C130.614 112.483 130.539 112.437 130.457 112.412C130.375 112.387 130.288 112.382 130.203 112.399C129.856 112.482 129.532 112.642 129.254 112.866C128.976 113.091 128.752 113.374 128.597 113.696C127.6 115.391 127.101 116.688 124.838 117.545C122.574 118.403 120.03 119.091 120.03 119.091L122.025 120.298C122.025 120.298 125.665 120.388 128.009 118.533C129.774 117.107 130.552 114.254 130.812 113.018Z" fill="#E8878B"/>
<path d="M131.769 113.895C131.794 113.813 131.799 113.727 131.782 113.643C131.765 113.559 131.728 113.48 131.674 113.414C131.62 113.348 131.55 113.296 131.471 113.263C131.392 113.231 131.306 113.218 131.22 113.227C130.866 113.279 130.528 113.409 130.23 113.608C129.931 113.806 129.681 114.068 129.495 114.374C128.358 115.97 127.74 117.196 125.406 117.865C123.783 118.316 122.139 118.686 120.479 118.972L122.474 120.966C122.474 120.966 126.463 120.478 128.458 119.111C130.452 117.745 131.4 115.112 131.769 113.895Z" fill="#E8878B"/>
<path d="M100.343 115.551L98.6177 117.246" stroke="black" stroke-width="0.3" stroke-miterlimit="10"/>
<path d="M141.712 31.8148C141.712 31.8148 154.757 30.0994 152.374 48.4503C150.848 60.1191 141.872 59.022 141.872 59.022C141.872 59.022 135.21 60.0991 131.839 46.4756C128.468 32.8521 141.712 31.8148 141.712 31.8148Z" fill="#E8878B"/>
<path d="M132.308 51.4822C134.296 51.4822 135.908 49.8703 135.908 47.8819C135.908 45.8934 134.296 44.2815 132.308 44.2815C130.319 44.2815 128.707 45.8934 128.707 47.8819C128.707 49.8703 130.319 51.4822 132.308 51.4822Z" fill="#E8878B"/>
<path d="M143.827 45.9371C143.827 45.9371 145.113 49.338 145.722 49.8267C146.33 50.3154 144.585 50.5946 144.585 50.5946" stroke="#B73D46" stroke-width="0.3" stroke-miterlimit="10"/>
<path d="M144.345 53.7561C145.032 53.8902 145.739 53.8702 146.417 53.6978C147.095 53.5253 147.726 53.2046 148.265 52.7588" stroke="#B73D46" stroke-width="0.3" stroke-miterlimit="10"/>
<path d="M148.883 45.0794C149.324 45.0794 149.681 44.7222 149.681 44.2815C149.681 43.8409 149.324 43.4836 148.883 43.4836C148.443 43.4836 148.085 43.8409 148.085 44.2815C148.085 44.7222 148.443 45.0794 148.883 45.0794Z" fill="#070707"/>
<path d="M146.779 43.723L146.42 43.4537C146.909 42.7769 147.613 42.2861 148.418 42.0615C149.222 41.8368 150.079 41.8917 150.848 42.217L150.668 42.6259C149.993 42.3318 149.237 42.2804 148.528 42.4804C147.819 42.6803 147.201 43.1194 146.779 43.723Z" fill="#070707"/>
<path d="M139.957 47.5827C140.398 47.5827 140.755 47.2255 140.755 46.7848C140.755 46.3442 140.398 45.9869 139.957 45.9869C139.516 45.9869 139.159 46.3442 139.159 46.7848C139.159 47.2255 139.516 47.5827 139.957 47.5827Z" fill="#070707"/>
<path d="M137.863 46.2262L137.494 45.957C137.985 45.2794 138.691 44.7882 139.497 44.5636C140.303 44.339 141.161 44.3942 141.932 44.7203L141.742 45.1292C141.069 44.8338 140.313 44.7818 139.606 44.9819C138.898 45.182 138.282 45.6219 137.863 46.2262Z" fill="#070707"/>
<path d="M139.957 36.7117C141.088 37.6787 142.422 38.3775 143.861 38.7557C145.299 39.1339 146.805 39.1819 148.265 38.8959C151.257 38.3673 152.474 41.9477 152.474 41.9477L152.593 29.132L130.054 32.8122V43.723L131.32 44.2815C131.699 42.2323 132.757 40.3705 134.324 38.997C135.891 37.6235 137.876 36.8184 139.957 36.7117Z" fill="black"/>
<path d="M133.215 40.0927C133.215 40.0927 130.532 42.8254 133.215 45.0794C135.09 46.6551 133.664 54.2448 132.706 55.292C132.706 55.292 134.99 48.3107 132.706 46.2363L130.014 43.733C130.014 43.733 128.578 37.4199 133.215 40.0927Z" fill="black"/>
<path d="M128.737 397.616H65.8754V413.693H128.737V397.616Z" fill="#1F627F"/>
<path d="M74.5122 404.108L67.4113 351.19C66.9429 348.294 67.5166 345.326 69.0305 342.813C70.5443 340.301 72.9001 338.406 75.6791 337.467L92.0752 331.912C94.4811 331.102 97.077 331.046 99.5153 331.752L116.141 336.589C118.958 337.409 121.393 339.2 123.014 341.645C124.635 344.09 125.338 347.03 124.997 349.943L121.217 404.108" fill="#55AAFF"/>
<path d="M95.4762 342.294C94.4572 342.315 93.4451 342.123 92.5052 341.729C91.5653 341.335 90.7184 340.748 90.0192 340.007C89.32 339.265 88.784 338.385 88.4459 337.424C88.1077 336.462 87.9749 335.441 88.056 334.425L89.4622 316.952C89.5707 315.596 90.1787 314.33 91.1683 313.397C92.1579 312.465 93.4585 311.933 94.8179 311.905C96.1794 311.873 97.5042 312.348 98.5346 313.238C99.5651 314.129 100.227 315.371 100.393 316.722L102.547 334.106C102.673 335.118 102.585 336.144 102.289 337.12C101.994 338.096 101.497 338.999 100.83 339.77C100.164 340.542 99.343 341.165 98.4208 341.6C97.4986 342.035 96.4954 342.271 95.4762 342.294Z" fill="#E8878B"/>
<path d="M102.068 330.266C102.068 330.266 92.0952 331.912 89.2129 324.093L101.031 321.888L102.068 330.266Z" fill="#D6656D"/>
<path d="M94.2847 291.627L94.2748 291.627C87.8263 291.767 82.7119 297.107 82.8515 303.556L83.0794 314.085C83.219 320.534 88.5597 325.648 95.0081 325.508L95.0181 325.508C101.467 325.369 106.581 320.028 106.441 313.58L106.213 303.05C106.074 296.602 100.733 291.487 94.2847 291.627Z" fill="#E8878B"/>
<path d="M94.2893 291.42C79.7382 291.739 82.9397 307.108 82.9397 307.108L83.0294 310.988H83.4383L84.4357 305.333C84.5196 304.558 84.7497 303.807 85.1138 303.119L86.5899 300.197C87.1289 299.183 88.0446 298.421 89.1396 298.076C90.2346 297.731 91.4214 297.83 92.4442 298.351C93.0621 298.666 93.7456 298.83 94.4389 298.83C95.1322 298.83 95.8157 298.666 96.4336 298.351L96.7726 298.172C97.7918 297.639 98.9793 297.528 100.08 297.862C101.18 298.195 102.106 298.948 102.657 299.957L104.013 302.441C104.353 303.061 104.583 303.736 104.691 304.435L105.948 310.469H106.357L106.277 306.589C106.277 306.589 109.199 291.101 94.2893 291.42Z" fill="#070707"/>
<path d="M106.447 313.012C108.023 313.012 109.249 310.868 109.209 309.202C109.17 307.537 107.883 306.948 106.317 306.978L106.447 313.012Z" fill="#E8878B"/>
<path d="M107.963 308.893C107.637 309.153 107.381 309.489 107.217 309.872C107.053 310.255 106.987 310.673 107.025 311.087C107.313 310.878 107.668 310.782 108.023 310.818" stroke="#B73D46" stroke-width="0.5" stroke-miterlimit="10"/>
<path d="M83.0793 313.521C81.5035 313.521 80.1871 311.526 80.1472 309.831C80.1073 308.135 81.3739 307.527 82.9497 307.487L83.0793 313.521Z" fill="#E8878B"/>
<path d="M81.4736 309.472C81.803 309.72 82.0663 310.045 82.2403 310.419C82.4142 310.793 82.4934 311.204 82.471 311.616C82.1752 311.426 81.8226 311.345 81.4736 311.387" stroke="#B73D46" stroke-width="0.5" stroke-miterlimit="10"/>
<path d="M71.8095 380.182L73.0063 359.488" stroke="black" stroke-width="0.3" stroke-miterlimit="10"/>
<path d="M124.409 376.901C124.409 376.901 106.866 379.016 104.931 379.893C102.996 380.771 102.198 372.643 89.3824 379.754C89.3824 379.754 71.1512 378.048 70.8121 379.055C70.473 380.063 72.8866 392.021 72.8866 392.021L116.689 382.975L124.409 376.901Z" fill="#429EEA"/>
<path d="M119.931 400.628C119.931 400.628 101.49 400.368 96.8126 398.444C92.1351 396.519 74.6718 401.615 74.6718 401.615L73.4551 394.225L100.453 388.131L120.1 397.656L119.931 400.628Z" fill="#429EEA"/>
<path d="M79.7881 379.594C79.7881 379.594 74.5521 379.325 70.7523 381.2C66.9525 383.075 70.9119 388.63 70.9119 388.63L77.7934 388.281L99.246 392.21L100.961 383.384L79.7881 379.594Z" fill="#E8878B"/>
<path d="M86.7695 380.851C86.7695 380.851 83.0095 385.598 85.443 389.717L86.7695 389.956L89.3725 381.369L86.7695 380.851Z" fill="#DD7A81"/>
<path d="M124.129 400.079L88.036 392.35C87.7119 392.284 87.4117 392.132 87.1675 391.909C86.9233 391.685 86.7444 391.4 86.6497 391.083C85.1039 385.957 88.5646 381.599 90.1803 379.923C90.4006 379.691 90.6769 379.52 90.9825 379.426C91.2882 379.331 91.6129 379.317 91.9256 379.385L122.304 385.857L119.681 358.481L116.051 336.589C132.667 341.416 132.108 352.177 132.108 352.177L136.945 394.943C137.048 395.848 136.937 396.765 136.619 397.619C136.302 398.473 135.788 399.24 135.118 399.857C134.449 400.475 133.643 400.927 132.767 401.175C131.89 401.423 130.967 401.461 130.074 401.286L124.129 400.079Z" fill="#55AAFF"/>
<path d="M122.304 385.967L107.344 389.448L97.2015 394.295L100.822 395.063L119.771 389.886C120.564 389.673 121.255 389.185 121.721 388.509C122.187 387.833 122.397 387.013 122.314 386.196L122.304 385.967Z" fill="#429EEA"/>
<path d="M122.304 385.967L121.656 379.195C119.124 378.574 116.495 378.455 113.917 378.846L92.913 383.543L95.0174 392.29L116.28 387.433L122.304 385.967Z" fill="#E8878B"/>
<path d="M106.955 380.412C106.955 380.412 110.945 385 108.661 389.218L107.304 389.458L104.312 381L106.955 380.412Z" fill="#DD7A81"/>
<path d="M70.1938 401.246L105.918 391.951C106.239 391.869 106.532 391.703 106.767 391.47C107.002 391.237 107.171 390.945 107.255 390.625C108.571 385.438 104.931 381.24 103.265 379.654C103.034 379.434 102.751 379.277 102.442 379.197C102.133 379.117 101.809 379.116 101.5 379.195L71.4006 386.964L72.8667 359.498L75.5395 337.467C59.1534 343.012 60.1806 353.743 60.1806 353.743L57.1886 396.628C57.1238 397.536 57.2742 398.447 57.6275 399.286C57.9809 400.124 58.5272 400.868 59.222 401.456C59.9169 402.044 60.7406 402.46 61.6264 402.669C62.5122 402.879 63.4349 402.876 64.3195 402.662L70.1938 401.246Z" fill="#55AAFF"/>
<path d="M122.155 379.085L120.27 360.535" stroke="black" stroke-width="0.3" stroke-miterlimit="10"/>
<path d="M94.409 310.778C94.409 310.778 94.0001 315.545 93.4117 316.383C92.8232 317.221 95.1271 316.952 95.1271 316.952" stroke="#B73D46" stroke-width="0.5" stroke-miterlimit="10"/>
<path d="M93.2022 320.333C94.1036 320.534 95.0387 320.532 95.9392 320.327C96.8398 320.122 97.6833 319.718 98.4083 319.146" stroke="#B73D46" stroke-width="0.5" stroke-miterlimit="10"/>
<path d="M122.304 385.967C122.304 385.967 124.219 388.091 124.239 389.079" stroke="black" stroke-width="0.3" stroke-miterlimit="10"/>
<path d="M71.4006 386.964C70.9092 387.234 70.4847 387.61 70.1584 388.066C69.8321 388.522 69.6124 389.045 69.5156 389.597" stroke="black" stroke-width="0.3" stroke-miterlimit="10"/>
<path d="M96.7228 380.402L89.4323 382.297" stroke="black" stroke-width="0.3" stroke-miterlimit="10"/>
<path d="M100.752 311.087C101.319 311.087 101.779 310.627 101.779 310.06C101.779 309.493 101.319 309.033 100.752 309.033C100.185 309.033 99.7247 309.493 99.7247 310.06C99.7247 310.627 100.185 311.087 100.752 311.087Z" fill="#070707"/>
<path d="M98.2986 308.684L97.9296 308.235C98.7642 307.536 99.8123 307.144 100.9 307.122C101.989 307.1 103.052 307.451 103.914 308.115L103.545 308.564C102.793 307.969 101.858 307.656 100.9 307.678C99.942 307.699 99.0219 308.055 98.2986 308.684Z" fill="#070707"/>
<path d="M88.784 311.347C89.3514 311.347 89.8113 310.887 89.8113 310.319C89.8113 309.752 89.3514 309.292 88.784 309.292C88.2167 309.292 87.7568 309.752 87.7568 310.319C87.7568 310.887 88.2167 311.347 88.784 311.347Z" fill="#070707"/>
<path d="M86.3406 308.943L85.9716 308.494C86.8045 307.792 87.8532 307.397 88.9424 307.376C90.0315 307.354 91.0952 307.706 91.9555 308.375L91.5965 308.823C90.8437 308.228 89.9066 307.914 88.947 307.936C87.9873 307.958 87.0654 308.314 86.3406 308.943Z" fill="#070707"/>
<path d="M107.524 288.817C107.524 288.817 114.186 301.782 106.227 303.049C106.227 303.049 97.5905 298.551 88.814 300.625C88.814 300.625 85.7522 300.895 85.064 303.109L84.9643 298.122L94.2893 291.639C94.2893 291.639 95.9848 287.78 95.2069 287.032L107.524 288.817Z" fill="#070707"/>
<path d="M105.36 292.158C105.36 292.158 107.484 298.192 103.704 298.561" stroke="white" stroke-width="0.5" stroke-miterlimit="10"/>
<path d="M88.784 315.436C91.6262 315.436 93.9303 313.132 93.9303 310.29C93.9303 307.447 91.6262 305.143 88.784 305.143C85.9419 305.143 83.6378 307.447 83.6378 310.29C83.6378 313.132 85.9419 315.436 88.784 315.436Z" stroke="#F9EAEC" stroke-width="0.5" stroke-miterlimit="10"/>
<path d="M100.752 315.436C103.594 315.436 105.898 313.132 105.898 310.29C105.898 307.447 103.594 305.143 100.752 305.143C97.9098 305.143 95.6058 307.447 95.6058 310.29C95.6058 313.132 97.9098 315.436 100.752 315.436Z" stroke="#F9EAEC" stroke-width="0.5" stroke-miterlimit="10"/>
<path d="M93.9402 310.29H95.6058" stroke="#F9EAEC" stroke-width="0.5" stroke-miterlimit="10"/>
<path d="M113.229 433.889C113.229 433.889 140.356 439.514 147.138 431.216C147.138 431.216 153.321 421.243 144.046 420.674L114.386 423.766" fill="white"/>
<path d="M119.502 434.936C127.949 436.043 142.281 436.931 146.928 431.216C146.928 431.216 153.112 421.243 143.837 420.684L124.349 422.679C124.319 423.137 123.78 434.188 119.502 434.936Z" fill="#1C3D4F"/>
<path d="M113.229 433.889L99.7846 433.31C99.7846 433.31 95.147 417.632 103.724 417.183L114.386 423.766" fill="#E8878B"/>
<path d="M106.866 419.148C106.866 419.148 110.995 429.441 104.123 433.889L97.3411 433.091L101.271 415.667L106.866 419.148Z" fill="#D6656D"/>
<path d="M83.7775 429.471C83.7775 429.471 41.9594 423.866 33.8112 405.355C25.663 386.845 37.7407 383.703 37.7407 383.703C47.8636 380.053 103.245 415.478 103.245 415.478C103.245 415.478 107.464 427.286 97.3412 435.714L46.7366 412.386" fill="#346E94"/>
<path d="M90.6391 407.699C90.6391 407.699 77.6738 414.83 70.2337 423.217L79.8579 427.655L93.7508 409.584L90.6391 407.699Z" fill="#1F627F"/>
<path d="M76.6565 433.889C76.5169 433.889 73.9338 434.457 70.2237 434.936C61.7863 436.043 47.4447 436.931 42.7971 431.216C42.7971 431.216 36.6137 421.243 45.8888 420.684L65.3767 422.679L75.5494 423.736" fill="white"/>
<path d="M76.6764 433.889L90.1105 433.31C90.1105 433.31 94.7481 417.632 86.2109 417.183L75.5495 423.766C75.5495 423.766 75.3999 424.145 75.2203 424.763" fill="#E8878B"/>
<path d="M83.3585 418.949C83.3585 418.949 80.6059 428.503 85.7821 433.091L92.3744 432.532L89.1829 415.667L83.3585 418.949Z" fill="#D6656D"/>
<path d="M143.168 412.386L92.554 435.714C82.441 427.286 86.6498 415.478 86.6498 415.478C86.6498 415.478 142.042 380.053 152.164 383.703C152.164 383.703 164.252 386.795 156.094 405.355C147.936 423.915 106.108 429.471 106.108 429.471" fill="#346E94"/>
<path d="M138.9 414.351L120.09 426.648L108.052 428.573L138.9 414.351Z" fill="#1F627F"/>
<path d="M70.2237 434.936C61.7863 436.043 47.4447 436.931 42.7971 431.216C42.7971 431.216 36.6136 421.243 45.8888 420.684L65.3767 422.679C65.4066 423.137 65.9452 434.188 70.2237 434.936Z" fill="#1C3D4F"/>
<path d="M129.236 357.164H67.0223C66.3889 357.164 65.8754 357.678 65.8754 358.311V398.254C65.8754 398.887 66.3889 399.401 67.0223 399.401H129.236C129.869 399.401 130.383 398.887 130.383 398.254V358.311C130.383 357.678 129.869 357.164 129.236 357.164Z" fill="#B8CAFC"/>
<path d="M129.006 399.401H67.2517C66.4916 399.401 65.8754 400.017 65.8754 400.777V401.136C65.8754 401.896 66.4916 402.513 67.2517 402.513H129.006C129.767 402.513 130.383 401.896 130.383 401.136V400.777C130.383 400.017 129.767 399.401 129.006 399.401Z" fill="#D5E4EF"/>
<path d="M98.129 383.324C101.781 383.324 104.741 380.364 104.741 376.712C104.741 373.06 101.781 370.099 98.129 370.099C94.4771 370.099 91.5167 373.06 91.5167 376.712C91.5167 380.364 94.4771 383.324 98.129 383.324Z" fill="white"/>
<path d="M546.339 134.071C579.024 134.071 605.521 107.575 605.521 74.8895C605.521 42.2044 579.024 15.7079 546.339 15.7079C513.654 15.7079 487.158 42.2044 487.158 74.8895C487.158 107.575 513.654 134.071 546.339 134.071Z" fill="#B7EEF7"/>
<path d="M542.34 80.7838L524.797 87.4858C521.824 88.6255 519.352 90.7816 517.818 93.5715C516.284 96.3614 515.789 99.6045 516.42 102.725L526.473 157.109C526.871 159.088 527.854 160.901 529.294 162.314C530.734 163.728 532.566 164.677 534.551 165.038L537.034 165.497C546.707 167.265 556.664 166.652 566.047 163.712L568.46 162.954C570.386 162.349 572.087 161.181 573.344 159.601C574.6 158.021 575.355 156.1 575.511 154.088L578.822 98.8953C579.07 95.7172 578.183 92.5543 576.318 89.9687C574.454 87.383 571.733 85.5421 568.64 84.7731L550.528 82.6787C547.875 82.0105 544.913 79.7864 542.34 80.7838Z" fill="#79C4BD"/>
<path d="M540.276 174.692C551.246 174.094 558.676 176.916 569.687 176.258C569.886 176.258 577.735 178.253 577.925 178.253L575.571 154.865C575.571 154.865 559.514 158.376 526.473 157.149L526.064 169.397C529.165 173.855 534.631 174.992 540.276 174.692Z" fill="#346E94"/>
<path d="M533.933 157.319C535.149 160.191 535.808 163.742 534.561 166.704" stroke="#5DABCE" stroke-width="0.3" stroke-miterlimit="10"/>
<path d="M546.479 91.8641C545.375 91.9319 544.269 91.7675 543.233 91.3814C542.197 90.9953 541.253 90.3962 540.462 89.6227C539.672 88.8492 539.053 87.9186 538.644 86.8908C538.236 85.8631 538.048 84.7611 538.091 83.6561L538.859 64.647C538.923 63.172 539.529 61.7725 540.562 60.7176C541.595 59.6627 542.981 59.0269 544.454 58.9323C545.928 58.8456 547.382 59.3069 548.537 60.2274C549.691 61.1479 550.464 62.4627 550.708 63.9189L553.799 82.6887C553.98 83.7805 553.93 84.8981 553.651 85.9691C553.372 87.04 552.871 88.0405 552.181 88.9056C551.491 89.7707 550.627 90.4811 549.644 90.9907C548.662 91.5004 547.584 91.798 546.479 91.8641Z" fill="#E8878B"/>
<path d="M553.161 78.7891C553.161 78.7891 541.702 79.4972 538.72 68.0379L550.688 63.889L553.161 78.7891Z" fill="#D6656D"/>
<path d="M546.131 32.4012L539.531 32.8072C534.363 33.1251 530.432 37.5722 530.75 42.74L531.857 60.7477C532.175 65.9156 536.622 69.8472 541.79 69.5293L548.39 69.1234C553.558 68.8055 557.49 64.3584 557.172 59.1906L556.064 41.1829C555.746 36.015 551.299 32.0834 546.131 32.4012Z" fill="#E8878B"/>
<path d="M542.749 31.1666C526.981 32.1639 531.19 49.9164 531.19 49.9164L531.449 54.1251H531.898L532.676 47.9517C532.735 47.1065 532.955 46.2805 533.324 45.5182L534.85 42.3367C535.392 41.214 536.353 40.3488 537.526 39.9273C538.699 39.5058 539.991 39.5616 541.123 40.0827C541.813 40.3987 542.569 40.5455 543.327 40.5108C544.085 40.4761 544.824 40.261 545.482 39.8832L545.841 39.6738C546.923 39.0513 548.206 38.8781 549.414 39.1914C550.623 39.5047 551.66 40.2795 552.303 41.3493L553.879 43.9823C554.269 44.6501 554.546 45.3781 554.697 46.1365L556.323 52.6192H556.772L556.512 48.3606C556.512 48.3606 558.906 30.1692 542.749 31.1666Z" fill="#070707"/>
<path d="M556.941 55.312C558.646 55.2022 559.933 52.8585 559.773 51.0633C559.614 49.2681 558.238 48.6697 556.532 48.7794L556.941 55.312Z" fill="#E8878B"/>
<path d="M558.407 50.7741C558.066 51.0706 557.803 51.4472 557.643 51.8702C557.483 52.2932 557.43 52.7493 557.49 53.1976C557.774 52.975 558.126 52.8554 558.487 52.8585" stroke="#B73D46" stroke-width="0.3" stroke-miterlimit="10"/>
<path d="M531.579 56.8478C529.873 56.9476 528.348 54.7833 528.238 52.9782C528.128 51.173 529.474 50.415 531.18 50.3153L531.579 56.8478Z" fill="#E8878B"/>
<path d="M529.694 52.5394C530.07 52.7915 530.379 53.1329 530.591 53.5332C530.803 53.9335 530.913 54.3801 530.911 54.8332C530.583 54.64 530.199 54.566 529.824 54.6238" stroke="#B73D46" stroke-width="0.3" stroke-miterlimit="10"/>
<path d="M501.599 163.622L508.83 105.777C508.83 105.777 507.264 94.1879 524.787 87.4659L522.792 111.472L514.624 166.056L501.599 163.622Z" fill="#79C4BD"/>
<path d="M601.392 155.494L584.657 99.6433C584.657 99.6433 584.278 87.9546 565.867 84.2346L571.781 107.592L588.905 160.032L601.392 155.494Z" fill="#79C4BD"/>
<path d="M520.907 126.98L522.842 111.492" stroke="black" stroke-width="0.3" stroke-miterlimit="10"/>
<path d="M543.706 51.2429C543.706 51.2429 543.457 56.429 542.839 57.3665C542.22 58.304 544.724 57.905 544.724 57.905" stroke="#B73D46" stroke-width="0.3" stroke-miterlimit="10"/>
<path d="M541.333 62.3232C543.417 62.6468 545.546 62.5176 547.576 61.9442C547.576 61.9442 545.761 66.6716 541.333 62.3232Z" fill="white"/>
<path d="M577.386 124.886L570.744 106.824" stroke="black" stroke-width="0.3" stroke-miterlimit="10"/>
<path d="M549.621 51.8911C550.21 51.8911 550.688 51.4133 550.688 50.824C550.688 50.2346 550.21 49.7568 549.621 49.7568C549.031 49.7568 548.553 50.2346 548.553 50.824C548.553 51.4133 549.031 51.8911 549.621 51.8911Z" fill="#070707"/>
<path d="M547.057 49.4277L546.669 48.9589C547.527 48.232 548.606 47.8166 549.73 47.7804C550.855 47.7442 551.958 48.0892 552.862 48.7595L552.483 49.2382C551.697 48.6354 550.726 48.3247 549.736 48.3593C548.746 48.3939 547.799 48.7716 547.057 49.4277Z" fill="#070707"/>
<path d="M537.144 52.31C537.733 52.31 538.211 51.8322 538.211 51.2429C538.211 50.6535 537.733 50.1757 537.144 50.1757C536.555 50.1757 536.077 50.6535 536.077 51.2429C536.077 51.8322 536.555 52.31 537.144 52.31Z" fill="#070707"/>
<path d="M534.571 49.8666L534.182 49.4078C535.04 48.6808 536.12 48.2655 537.244 48.2293C538.368 48.1931 539.472 48.5381 540.375 49.2083L539.996 49.687C539.211 49.0847 538.241 48.7734 537.252 48.8062C536.262 48.8389 535.315 49.2137 534.571 49.8666Z" fill="#070707"/>
</svg>
